<svg width="12" height="12" viewBox="0 0 12 12" fill="none" xmlns="http://www.w3.org/2000/svg">
<mask id="mask0_530_154" style="mask-type:alpha" maskUnits="userSpaceOnUse" x="0" y="0" width="12" height="12">
<rect width="12" height="12" fill="#D9D9D9"/>
</mask>
<g mask="url(#mask0_530_154)">
<path d="M2.00001 9.5V8.5H3.00001V5C3.00001 4.725 3.03543 4.45417 3.10626 4.1875C3.1771 3.92083 3.28335 3.66667 3.42501 3.425L4.17501 4.175C4.11668 4.30833 4.07293 4.44375 4.04376 4.58125C4.0146 4.71875 4.00001 4.85833 4.00001 5V8.5H7.10001L0.700012 2.1L1.40001 1.4L10.6 10.6L9.90001 11.3L8.07501 9.5H2.00001ZM9.00001 7.575L8.00001 6.575V5C8.00001 4.45 7.80418 3.97917 7.41251 3.5875C7.02085 3.19583 6.55001 3 6.00001 3C5.78335 3 5.57501 3.03333 5.37501 3.1C5.17501 3.16667 4.99168 3.26667 4.82501 3.4L4.10001 2.675C4.26668 2.54167 4.44585 2.425 4.63751 2.325C4.82918 2.225 5.03335 2.15 5.25001 2.1V1.75C5.25001 1.54167 5.32293 1.36458 5.46876 1.21875C5.6146 1.07292 5.79168 1 6.00001 1C6.20835 1 6.38543 1.07292 6.53126 1.21875C6.6771 1.36458 6.75001 1.54167 6.75001 1.75V2.1C7.41668 2.26667 7.95835 2.61875 8.37501 3.15625C8.79168 3.69375 9.00001 4.30833 9.00001 5V7.575ZM6.00001 11C5.72501 11 5.4896 10.9021 5.29376 10.7063C5.09793 10.5104 5.00001 10.275 5.00001 10H7.00001C7.00001 10.275 6.9021 10.5104 6.70626 10.7063C6.51043 10.9021 6.27501 11 6.00001 11Z" fill="#B0B0B0"/>
</g>
</svg>
