<svg width="12" height="12" viewBox="0 0 12 12" fill="none" xmlns="http://www.w3.org/2000/svg">
<mask id="mask0_530_145" style="mask-type:alpha" maskUnits="userSpaceOnUse" x="0" y="0" width="12" height="12">
<rect width="12" height="12" fill="#D9D9D9"/>
</mask>
<g mask="url(#mask0_530_145)">
<path d="M1 5.00001C1 4.16667 1.18542 3.40209 1.55625 2.70626C1.92708 2.01042 2.425 1.43334 3.05 0.975006L3.6375 1.77501C3.1375 2.14167 2.73958 2.60417 2.44375 3.16251C2.14792 3.72084 2 4.33334 2 5.00001H1ZM10 5.00001C10 4.33334 9.85208 3.72084 9.55625 3.16251C9.26042 2.60417 8.8625 2.14167 8.3625 1.77501L8.95 0.975006C9.575 1.43334 10.0729 2.01042 10.4438 2.70626C10.8146 3.40209 11 4.16667 11 5.00001H10ZM2 9.50001V8.50001H3V5.00001C3 4.30834 3.20833 3.69376 3.625 3.15626C4.04167 2.61876 4.58333 2.26667 5.25 2.10001V1.75001C5.25 1.54167 5.32292 1.36459 5.46875 1.21876C5.61458 1.07292 5.79167 1.00001 6 1.00001C6.20833 1.00001 6.38542 1.07292 6.53125 1.21876C6.67708 1.36459 6.75 1.54167 6.75 1.75001V2.10001C7.41667 2.26667 7.95833 2.61876 8.375 3.15626C8.79167 3.69376 9 4.30834 9 5.00001V8.50001H10V9.50001H2ZM6 11C5.725 11 5.48958 10.9021 5.29375 10.7063C5.09792 10.5104 5 10.275 5 10H7C7 10.275 6.90208 10.5104 6.70625 10.7063C6.51042 10.9021 6.275 11 6 11ZM4 8.50001H8V5.00001C8 4.45001 7.80417 3.97917 7.4125 3.58751C7.02083 3.19584 6.55 3.00001 6 3.00001C5.45 3.00001 4.97917 3.19584 4.5875 3.58751C4.19583 3.97917 4 4.45001 4 5.00001V8.50001Z" fill="#B0B0B0"/>
</g>
</svg>
